<?xml version="1.0" standalone="no"?>
<!DOCTYPE svg PUBLIC "-//W3C//DTD SVG 20010904//EN"
 "http://www.w3.org/TR/2001/REC-SVG-20010904/DTD/svg10.dtd">
<svg version="1.0" xmlns="http://www.w3.org/2000/svg"
 width="260.000000pt" height="260.000000pt" viewBox="0 0 260.000000 260.000000"
 preserveAspectRatio="xMidYMid meet">
<metadata>
Created by potrace 1.11, written by Peter Selinger 2001-2013
</metadata>
<g transform="translate(0.000000,260.000000) scale(0.100000,-0.100000)"
fill="#000000" stroke="none">
<path d="M1872 2469 c-9 -13 -9 -20 0 -25 7 -5 8 -2 3 7 -8 12 -6 12 8 0 22
-17 22 -17 -7 -17 -14 0 -22 4 -20 8 8 12 -10 9 -26 -4 -8 -7 -5 -1 8 13 17
19 19 26 8 26 -8 0 -12 -5 -9 -10 4 -6 0 -8 -10 -4 -9 3 -19 2 -22 -3 -10 -16
-68 -13 -59 3 4 6 3 8 -1 4 -9 -8 -12 -19 -18 -70 -2 -15 -7 -30 -10 -34 -10
-9 -9 -25 1 -19 4 2 9 -4 9 -15 1 -12 -3 -18 -10 -16 -7 2 -25 -2 -42 -10 -27
-13 -28 -13 -11 2 11 8 18 15 15 16 -33 6 -43 10 -49 20 -6 8 -9 6 -13 -7 -4
-18 -5 -18 -6 1 -1 17 -3 18 -11 5 -8 -12 -10 -12 -10 5 0 17 -2 17 -10 5 -13
-21 -53 -22 -45 -1 5 13 4 14 -6 4 -7 -7 -17 -13 -22 -13 -4 0 -5 6 0 13 4 6
-6 4 -21 -7 -21 -13 -28 -15 -24 -4 4 9 -1 14 -13 14 -11 0 -17 -5 -15 -13 3
-7 -1 -10 -9 -6 -8 3 -13 8 -10 12 8 14 -35 5 -48 -9 -9 -11 -7 -11 8 0 18 14
19 14 6 -2 -15 -20 -31 -15 -32 10 0 11 -2 12 -6 4 -2 -6 -8 -10 -13 -7 -9 6
-61 -41 -53 -49 7 -7 -34 1 -47 9 -6 3 -10 1 -10 -5 0 -6 -4 -9 -9 -6 -5 3 -8
-2 -7 -11 1 -12 -7 -17 -24 -18 -19 0 -24 -5 -22 -20 l4 -20 -16 20 c-13 16
-15 17 -10 3 4 -12 1 -18 -10 -18 -9 0 -16 -5 -16 -11 0 -5 4 -8 9 -4 5 3 13
0 17 -6 4 -7 3 -9 -4 -5 -6 3 -13 2 -17 -4 -3 -5 -11 -10 -16 -10 -6 0 -7 5
-3 12 4 7 3 8 -5 4 -9 -6 -9 -11 0 -22 9 -11 9 -14 0 -14 -7 0 -9 -4 -6 -10 3
-5 1 -10 -4 -10 -6 0 -11 -5 -11 -11 0 -5 5 -7 11 -4 6 4 5 -2 -2 -13 -7 -12
-16 -19 -19 -17 -3 2 -7 -5 -7 -16 -2 -18 0 -19 15 -7 9 7 4 -5 -12 -26 -16
-22 -25 -37 -19 -33 5 3 10 0 10 -8 0 -18 -9 -19 -23 -5 -8 8 -11 3 -10 -14 1
-14 5 -28 9 -32 3 -4 4 3 2 15 -2 12 0 19 4 17 10 -7 8 -53 -3 -63 -5 -4 -6
-3 -3 3 4 7 0 14 -8 17 -9 4 -12 1 -8 -9 3 -8 0 -21 -7 -29 -7 -8 -9 -15 -6
-15 4 0 2 -9 -4 -20 -8 -15 -6 -21 9 -29 10 -6 21 -7 25 -4 3 3 6 2 6 -4 0 -6
-7 -14 -16 -17 -8 -3 -12 -2 -9 4 3 6 -1 10 -9 10 -9 0 -13 -6 -10 -13 3 -8
-1 -14 -8 -14 -8 0 -14 8 -14 18 0 10 5 15 11 12 5 -4 6 -2 2 2 -4 5 -14 10
-23 11 -11 2 -13 -4 -10 -19 3 -12 3 -16 0 -9 -3 6 -9 10 -14 7 -4 -3 -6 5 -3
17 5 23 5 23 -11 3 -13 -17 -17 -18 -25 -5 -6 8 -14 11 -18 6 -4 -4 1 -14 11
-22 11 -8 15 -14 9 -14 -7 0 -15 5 -18 10 -4 6 -10 8 -15 5 -5 -3 -12 0 -16 6
-4 7 -3 9 3 6 5 -3 10 0 10 7 0 8 -6 12 -14 9 -12 -5 -17 -17 -15 -34 1 -4 -9
-2 -22 4 -15 7 -22 17 -18 27 5 13 4 13 -13 0 -10 -8 -16 -10 -13 -5 3 6 -1
16 -10 24 -13 13 -14 12 -8 -12 5 -20 3 -25 -8 -21 -8 3 -17 0 -22 -7 -4 -7
-3 -10 3 -6 6 4 14 0 17 -9 3 -8 2 -12 -3 -9 -5 3 -13 0 -17 -6 -4 -7 8 -25
30 -43 20 -18 36 -37 36 -43 0 -7 5 -15 12 -19 6 -4 9 -3 5 2 -8 14 60 9 78
-6 17 -14 20 -30 4 -30 -5 0 -7 5 -3 12 4 7 3 8 -4 4 -11 -7 -6 -36 6 -34 28
3 34 -2 21 -19 -12 -14 -12 -16 2 -11 9 4 16 1 16 -8 0 -7 -3 -11 -6 -9 -3 2
-6 -9 -6 -25 -1 -28 -1 -28 30 -13 18 8 32 21 32 29 0 9 -4 11 -12 4 -8 -6
-11 -1 -9 20 1 16 5 33 8 39 4 7 1 9 -8 5 -10 -4 -13 0 -10 13 3 10 0 29 -6
43 -10 24 -10 24 -5 -5 5 -23 4 -27 -5 -19 -18 18 -8 50 14 46 10 -2 15 1 12
7 -4 6 6 17 22 25 25 13 30 13 50 -2 13 -11 19 -22 13 -30 -5 -9 -11 -5 -21
15 -7 16 -15 23 -17 15 -3 -6 -10 -9 -15 -6 -7 4 -8 2 -4 -5 4 -6 11 -9 16 -6
13 8 31 -31 23 -52 -5 -16 -4 -15 13 2 10 12 15 15 10 8 -5 -9 -4 -13 5 -13
11 0 11 -2 -1 -10 -13 -9 -13 -10 0 -10 13 0 13 -1 0 -10 -10 -6 -11 -10 -2
-10 6 0 12 -5 12 -11 0 -5 -5 -7 -10 -4 -6 4 -5 -4 1 -19 7 -14 16 -23 22 -19
6 3 7 1 3 -5 -3 -5 -3 -12 1 -15 5 -2 3 -2 -4 -1 -7 2 -15 -1 -18 -7 -4 -5 -3
-9 2 -8 20 3 34 -2 28 -11 -3 -5 -1 -10 4 -10 6 0 11 -5 11 -11 0 -5 -4 -8 -9
-4 -5 3 -13 0 -17 -6 -4 -7 -3 -9 2 -6 6 3 16 2 24 -4 12 -7 11 -9 -5 -9 -19
0 -18 -2 4 -19 18 -14 21 -20 11 -26 -9 -5 -11 -4 -6 3 4 7 2 12 -4 12 -6 0
-13 -6 -16 -14 -3 -8 -13 -13 -22 -11 -9 1 -24 -3 -32 -9 -13 -10 -13 -9 -1 6
7 10 18 15 24 11 5 -3 7 -1 4 5 -4 5 -16 8 -27 5 -16 -4 -19 -2 -13 12 5 14 3
16 -7 10 -10 -6 -11 -4 -4 6 14 22 13 36 -2 36 -9 0 -11 -4 -4 -12 7 -8 5 -12
-4 -12 -14 0 -16 14 -3 33 7 12 -21 29 -31 19 -3 -3 0 -5 7 -5 8 0 7 -6 -4
-16 -13 -14 -14 -19 -3 -25 10 -7 10 -9 -1 -9 -8 0 -11 -3 -8 -7 4 -3 2 -12
-4 -19 -7 -8 -6 -14 2 -20 8 -5 9 -3 4 6 -5 9 -4 11 4 6 6 -4 9 -12 5 -17 -3
-5 -9 -7 -13 -5 -4 3 -13 0 -21 -5 -12 -8 -11 -9 4 -7 12 2 20 -4 21 -14 2
-10 -1 -18 -6 -18 -13 0 -11 -34 4 -49 6 -8 -1 -5 -18 5 l-30 18 20 -24 c17
-19 17 -22 3 -17 -12 4 -16 1 -13 -12 2 -10 0 -24 -5 -31 -10 -15 -2 -42 10
-35 5 3 12 0 16 -6 5 -8 3 -9 -6 -4 -9 5 -11 4 -6 -3 5 -8 1 -10 -11 -6 -17 5
-17 5 -1 -9 10 -8 14 -18 10 -22 -4 -5 -1 -5 6 -1 7 4 10 11 7 16 -3 5 -1 11
5 15 5 3 10 1 10 -6 0 -7 3 -9 6 -6 4 4 1 13 -6 22 -7 8 -10 16 -6 16 3 1 10
2 15 3 5 0 13 5 18 10 5 5 2 6 -6 1 -9 -5 -12 -3 -9 6 3 8 15 15 29 17 19 2
21 1 9 -7 -9 -7 -10 -11 -3 -11 6 0 10 -9 8 -20 -2 -11 0 -20 6 -20 5 0 8 -3
8 -7 -3 -20 2 -33 12 -33 8 0 7 6 -2 18 -13 15 -12 16 3 4 10 -8 14 -20 11
-29 -4 -10 -2 -14 4 -10 6 4 9 -5 7 -24 -3 -20 0 -28 7 -23 7 4 9 -1 5 -17 -3
-13 -3 -18 0 -11 5 10 9 9 19 -5 9 -12 10 -22 4 -30 -7 -7 -6 -13 1 -18 5 -3
10 -11 10 -16 0 -6 -4 -8 -8 -5 -11 6 -9 -25 3 -43 6 -11 4 -13 -10 -7 -15 5
-16 4 -6 -8 8 -10 9 -16 1 -21 -14 -9 -2 -27 13 -19 8 4 7 2 -1 -7 -10 -10
-15 -11 -20 -2 -5 8 -13 9 -22 3 -10 -7 -11 -10 -2 -10 6 0 12 -5 12 -10 0 -6
-11 -3 -24 7 -13 10 -20 19 -15 21 5 2 4 12 -2 23 -5 11 -7 24 -4 29 3 6 0 10
-7 10 -9 0 -9 3 2 10 9 6 11 10 3 10 -7 0 -10 7 -6 17 4 10 2 14 -4 10 -12 -8
-27 20 -24 42 1 7 -2 10 -8 6 -6 -3 -11 -1 -11 4 0 6 5 11 10 11 6 0 5 6 -2
14 -7 8 -16 12 -20 9 -5 -2 -8 3 -8 12 0 9 4 13 10 10 6 -3 7 1 4 9 -3 9 -10
16 -16 16 -5 0 -6 -4 -3 -10 3 -5 1 -10 -5 -10 -7 0 -10 6 -7 13 3 7 -3 24
-13 37 -10 13 -16 30 -13 37 3 7 0 13 -6 13 -6 0 -11 -4 -11 -10 0 -5 -9 -10
-21 -10 -11 0 -17 5 -14 10 3 5 -1 10 -9 10 -9 0 -36 14 -60 31 -45 32 -64 36
-181 40 -59 2 -152 -14 -188 -33 -32 -16 -67 -51 -61 -60 3 -5 1 -7 -4 -6 -6
2 -18 -5 -29 -14 -10 -10 -33 -30 -51 -45 -25 -21 -33 -37 -34 -61 -1 -18 -5
-35 -10 -38 -4 -3 -6 -9 -3 -14 3 -4 -3 -14 -13 -21 -16 -13 -16 -13 -2 5 13
17 13 19 0 14 -8 -3 -15 -14 -14 -26 0 -11 -4 -18 -10 -16 -6 2 -12 -6 -12
-18 -1 -13 -6 -77 -10 -143 -10 -148 -10 -290 0 -330 4 -16 9 -41 11 -55 1
-13 7 -26 13 -28 6 -2 9 -9 6 -17 -3 -7 -1 -16 5 -20 6 -3 11 -13 11 -21 0
-20 25 -45 36 -36 5 4 2 -1 -5 -10 -10 -13 -10 -18 -2 -18 7 0 9 -4 6 -10 -3
-5 -1 -10 5 -10 6 0 8 -4 5 -10 -3 -5 2 -10 11 -10 10 0 15 -3 11 -6 -3 -3 4
-16 16 -29 17 -17 25 -20 36 -11 12 8 13 8 7 -2 -9 -16 10 -32 71 -61 60 -29
82 -32 250 -38 144 -5 154 -4 188 17 19 12 35 27 35 34 0 7 12 23 28 37 l27
24 -25 -30 -25 -30 26 23 c17 15 25 31 23 47 -1 14 2 23 7 19 5 -3 6 -10 3
-16 -5 -7 -2 -8 5 -4 7 5 10 14 7 22 -3 7 0 16 6 20 6 4 8 3 5 -3 -4 -6 0 -16
8 -23 13 -11 14 -10 9 3 -6 16 19 18 33 2 4 -4 2 -5 -6 0 -10 6 -12 4 -7 -4 5
-7 14 -10 21 -8 8 4 11 -3 9 -19 -1 -13 3 -22 9 -21 7 1 10 -5 9 -13 -2 -8 0
-12 3 -8 4 4 17 2 29 -3 11 -6 5 3 -14 20 l-35 31 43 -27 c25 -16 41 -32 38
-40 -3 -7 -1 -13 4 -13 6 0 10 10 10 23 0 17 2 19 9 8 6 -9 6 -23 -1 -35 l-11
-21 23 20 c13 11 21 15 17 10 -3 -6 3 -17 15 -24 11 -7 17 -8 13 -2 -3 6 -1
11 4 11 6 0 11 -5 11 -11 0 -6 7 -3 16 6 15 15 18 15 41 -1 17 -11 23 -12 17
-3 -15 25 -12 50 5 44 12 -5 13 -3 4 6 -6 6 -9 18 -6 27 5 11 3 13 -8 7 -11
-7 -12 -6 -2 6 10 12 9 18 -6 29 -11 7 -22 12 -25 11 -12 -3 -36 27 -39 48 -2
12 -10 27 -17 34 -11 9 -11 7 0 -7 14 -18 14 -18 -7 -6 -16 10 -19 19 -13 34
4 12 12 21 18 21 6 0 14 3 18 8 4 4 12 7 18 7 6 0 3 -5 -6 -11 -10 -5 -18 -15
-18 -22 0 -8 3 -7 9 2 5 7 14 10 20 7 6 -4 11 -4 10 1 -4 23 2 43 11 38 6 -4
7 -11 4 -17 -4 -6 -2 -8 4 -5 5 4 8 17 6 30 -2 12 -2 16 2 10 9 -19 24 -16 17
4 -5 12 -3 14 8 8 12 -8 12 -6 0 8 -8 10 -11 20 -7 24 3 3 6 1 6 -5 0 -7 5
-12 11 -12 6 0 9 7 5 15 -3 8 -2 14 2 14 19 -3 25 2 12 11 -13 9 -13 10 1 10
12 0 15 10 14 45 -1 25 2 45 6 45 5 0 9 5 9 11 0 5 -4 8 -9 5 -5 -3 -12 1 -15
10 -3 8 -2 13 3 10 5 -3 8 17 7 45 -2 27 1 52 5 55 4 2 6 -4 4 -16 -2 -11 1
-22 6 -26 5 -3 9 -2 8 3 -4 22 2 34 14 27 7 -5 6 0 -3 11 -8 10 -10 16 -3 12
7 -5 16 1 22 12 15 27 14 31 -6 24 -19 -7 -18 -5 11 17 11 8 17 10 13 3 -4 -6
-4 -14 1 -17 8 -5 10 1 14 43 1 11 6 17 10 15 4 -3 12 5 18 16 6 11 14 18 18
16 5 -3 9 4 9 15 1 11 -2 17 -7 14 -6 -3 -7 1 -4 9 3 9 12 12 22 8 15 -5 15
-4 3 11 -8 10 -11 20 -7 24 3 3 6 1 6 -6 0 -7 5 -9 10 -6 6 4 7 12 3 18 -5 9
-2 8 8 0 13 -10 15 -10 14 5 0 9 -4 22 -8 28 -4 7 2 10 18 8 14 -1 23 2 19 7
-3 5 -10 7 -15 4 -5 -4 -9 -1 -9 4 0 6 4 11 8 11 5 0 19 9 32 20 13 11 19 20
14 20 -6 0 -16 -6 -23 -13 -10 -10 -11 -9 -6 3 3 9 15 21 26 28 12 8 18 9 15
3 -4 -5 -1 -13 6 -17 7 -4 10 -4 6 1 -4 4 -3 17 3 28 8 15 8 18 -1 12 -8 -5
-11 -3 -8 6 3 8 14 13 24 12 18 -1 18 -1 -1 14 -16 13 -16 14 -2 9 9 -3 25 -9
35 -12 16 -5 16 -5 0 6 -19 11 -26 36 -8 25 6 -3 10 -1 10 5 0 6 4 9 9 6 5 -4
7 2 4 13 -3 10 0 22 6 25 7 4 8 1 5 -8 -4 -9 0 -18 9 -22 9 -3 18 -13 21 -21
5 -13 4 -13 -8 -4 -11 9 -13 6 -13 -16 0 -14 -8 -32 -18 -39 -9 -7 -18 -19
-19 -27 -1 -8 -8 -22 -15 -31 -11 -13 -11 -16 -1 -16 8 0 10 -3 7 -6 -4 -4
-13 -1 -22 6 -13 11 -14 10 -9 -5 5 -12 4 -16 -3 -12 -7 5 -9 0 -6 -13 3 -13
0 -20 -8 -20 -11 0 -11 -2 0 -9 12 -8 9 -16 -17 -46 -32 -36 -41 -51 -22 -40
6 3 10 2 10 -4 0 -5 -4 -12 -10 -16 -5 -3 -7 -12 -3 -21 3 -8 2 -14 -3 -12 -5
2 -10 -1 -12 -7 -1 -5 2 -10 7 -10 5 0 13 -4 18 -9 5 -5 2 -6 -6 -1 -11 6 -13
2 -9 -19 3 -14 1 -29 -4 -32 -4 -3 -5 -10 -2 -16 5 -8 1 -9 -10 -5 -9 4 -14 3
-11 -2 3 -5 1 -13 -5 -16 -7 -4 -7 -12 -2 -18 10 -15 10 -27 -2 -46 -6 -9 -5
-12 1 -8 6 4 14 -1 18 -11 8 -23 6 -28 -11 -24 -8 2 -14 -2 -14 -8 0 -6 5 -8
10 -5 6 3 10 -2 10 -12 0 -15 2 -16 10 -3 6 9 10 10 10 3 0 -6 -4 -15 -10 -18
-5 -3 -10 -14 -10 -23 0 -13 2 -14 9 -4 7 11 9 10 14 -3 4 -9 3 -13 -2 -10 -5
3 -12 1 -16 -5 -3 -5 -1 -10 6 -10 7 0 9 -10 7 -25 -3 -14 -1 -28 5 -32 6 -4
7 -1 2 7 -5 9 -4 11 4 6 9 -6 9 -11 0 -22 -9 -11 -9 -14 1 -14 9 0 9 -4 -1
-17 -12 -14 -12 -15 0 -9 10 7 12 4 6 -13 -5 -17 -3 -20 11 -14 13 5 15 3 8
-8 -15 -24 -13 -37 7 -42 16 -4 18 -11 13 -31 -4 -19 -2 -26 9 -26 8 0 18 -7
21 -16 6 -15 4 -15 -10 -3 -16 13 -16 12 -4 -8 8 -12 18 -19 23 -16 12 7 4
-30 -8 -40 -6 -5 -4 -7 5 -4 8 2 14 10 12 16 -1 6 3 11 9 11 6 0 9 -9 6 -20
-3 -11 0 -23 5 -27 7 -4 8 -1 3 8 -4 8 5 1 19 -15 15 -17 25 -35 22 -41 -2 -7
3 -12 11 -12 9 0 13 7 9 20 -3 12 -1 16 4 11 15 -15 20 -64 7 -64 -14 -1 22
-23 41 -26 10 -2 10 1 1 12 -6 7 -15 11 -20 8 -5 -3 -6 3 -2 12 6 15 7 15 18
1 7 -9 15 -13 19 -9 4 4 7 2 6 -3 -5 -24 1 -34 17 -28 12 5 14 3 8 -7 -6 -10
-4 -12 8 -7 9 3 16 3 14 -1 -1 -4 1 -7 4 -7 3 0 13 -6 22 -14 13 -10 20 -11
30 -2 8 6 18 7 22 3 5 -4 5 -1 0 7 -5 9 -3 12 6 9 8 -3 13 -15 13 -27 -1 -20
0 -20 16 -6 9 8 20 12 25 8 4 -5 5 -2 1 5 -7 12 3 15 47 15 9 0 17 4 17 10 0
6 3 8 6 5 3 -4 1 -16 -6 -27 -16 -31 3 -25 22 7 15 24 17 25 15 5 0 -12 -4
-20 -7 -18 -4 2 -7 -2 -7 -10 0 -11 4 -12 13 -4 7 6 18 8 24 4 5 -3 10 -2 10
2 0 5 7 18 15 29 13 18 14 17 6 -11 -7 -27 -6 -30 18 -32 21 -1 22 0 8 8 -9 6
-17 15 -17 21 0 7 4 7 14 -1 10 -9 17 -7 27 6 9 11 10 14 2 9 -25 -14 -12 10
27 54 23 25 45 44 50 42 6 -1 10 5 10 13 0 8 5 15 10 15 7 0 7 -7 0 -21 -7
-11 -9 -23 -6 -27 3 -3 6 0 6 7 0 7 4 9 10 6 6 -3 7 1 4 9 -3 9 -2 16 3 16 5
0 10 7 10 15 0 8 -4 12 -8 10 -10 -7 -5 22 6 32 4 4 5 2 1 -4 -4 -7 -3 -13 2
-13 17 0 22 13 10 27 -8 11 -7 12 6 7 12 -5 15 -2 9 12 -5 13 -3 15 7 9 10 -6
12 -4 7 9 -5 13 -3 17 7 13 11 -4 13 -1 9 10 -5 12 -2 14 8 9 8 -4 5 0 -5 8
-18 15 -18 16 -2 16 10 0 14 4 10 12 -5 7 -2 9 7 6 11 -4 14 1 13 23 -1 16 3
29 8 29 6 0 8 7 4 15 -3 8 0 15 7 15 8 0 6 4 -3 10 -8 5 -10 10 -4 10 6 0 11
12 12 28 0 35 12 72 23 72 14 0 11 28 -3 33 -10 4 -10 6 0 6 6 1 12 6 12 12 0
5 -6 7 -12 3 -10 -6 -10 -4 -2 7 6 8 10 24 8 37 -2 14 0 21 6 17 6 -3 7 1 4 9
-3 9 -10 16 -16 16 -5 0 -6 5 -3 10 4 6 10 8 15 5 4 -3 6 4 3 15 -3 11 -10 17
-17 13 -7 -4 -6 -1 1 9 7 8 10 18 6 22 -12 12 -12 36 0 36 7 1 1 7 -12 14 -22
12 -22 13 -5 20 18 7 18 9 -5 27 -14 12 -18 19 -9 19 8 0 18 -3 24 -7 5 -5 -1
2 -14 15 -18 18 -20 27 -12 43 6 10 7 19 3 18 -19 -3 -25 2 -15 14 8 10 5 20
-13 42 -30 34 -30 36 -7 29 9 -2 7 1 -6 8 -16 8 -22 18 -18 30 4 16 2 17 -11
6 -15 -12 -15 -11 -4 9 8 16 8 23 1 23 -6 0 -8 5 -4 12 4 7 3 8 -4 4 -6 -4 -9
-14 -6 -24 5 -14 4 -14 -4 -3 -6 8 -8 20 -5 28 3 7 -2 16 -12 19 -9 4 -14 12
-11 20 6 15 -17 37 -29 26 -5 -4 -5 2 -1 12 5 15 4 17 -8 7 -11 -9 -14 -8 -12
6 1 12 -5 17 -17 15 -12 -2 -17 2 -15 14 2 11 -5 18 -20 20 -16 3 -21 0 -16
-8 4 -7 -6 -2 -22 12 -16 14 -31 27 -34 29 -3 2 3 1 13 -2 9 -4 17 -2 17 4 0
7 -13 9 -30 7 -17 -3 -34 0 -37 5 -4 6 -1 7 8 2 12 -8 12 -6 0 8 -15 19 -35
12 -27 -9 3 -8 0 -11 -10 -7 -8 3 -13 12 -10 19 3 8 2 13 -2 13 -4 -1 -9 0
-12 1 -19 7 -41 7 -45 0 -3 -5 3 -7 15 -5 11 2 23 -1 26 -7 4 -6 2 -8 -4 -4
-6 3 -13 2 -17 -4 -8 -13 -45 10 -39 25 3 5 -2 1 -10 -9 -9 -11 -16 -15 -16
-9 0 16 -69 7 -91 -13 -11 -10 -20 -14 -19 -9 6 29 -2 38 -13 15 -9 -17 -10
-27 -3 -32 7 -5 7 -8 1 -9 -5 0 -18 -2 -28 -4 -9 -2 -15 0 -12 5 3 5 -1 11 -7
13 -10 4 -10 6 -1 6 7 1 10 7 7 15 -3 7 2 16 11 20 9 3 13 2 10 -3 -3 -5 -1
-12 4 -15 5 -4 8 2 6 11 -1 10 -8 17 -13 16 -7 -2 -9 4 -5 15 6 15 5 16 -13 2
-18 -14 -18 -13 1 9 11 14 14 21 6 16 -11 -6 -13 -4 -8 8 3 9 0 23 -8 30 -12
12 -10 16 11 26 33 15 34 14 27 -6 -5 -15 -3 -15 11 2 10 11 15 15 12 9 -7
-14 32 -26 40 -13 3 6 11 5 20 -2 12 -10 13 -9 8 5 -7 19 -16 20 -31 5 -8 -8
-13 -8 -18 0 -3 6 -3 11 2 10 4 -1 16 1 26 5 12 6 23 1 38 -15 11 -13 18 -18
14 -11 -9 17 5 15 29 -5 20 -17 20 -17 7 0 -12 15 -11 17 5 14 11 -1 25 -7 33
-11 10 -7 12 -6 6 4 -6 10 -4 12 10 6 14 -5 16 -4 6 7 -8 11 -6 18 10 33 24
21 28 22 40 2 6 -9 8 -7 7 7 0 11 3 29 7 39 7 15 5 17 -6 11 -11 -6 -12 -5 -1
6 14 16 16 33 2 24 -5 -3 -10 -2 -10 4 0 5 6 12 13 14 10 4 10 6 0 6 -7 1 -13
6 -13 12 0 5 5 7 12 3 7 -4 8 -3 4 4 -4 7 -16 12 -26 12 -14 0 -18 6 -15 21 3
17 1 19 -10 9 -10 -8 -15 -8 -21 1 -4 7 -3 9 2 6 6 -3 16 3 23 15 7 11 8 17 2
13 -6 -3 -11 -1 -11 4 0 6 4 11 9 11 11 0 11 59 0 66 -4 2 -10 0 -14 -6 -4 -6
-11 -7 -17 -4 -7 5 -8 2 -3 -6 6 -9 4 -12 -7 -8 -11 5 -14 1 -11 -16 5 -26
-21 -54 -33 -35 -4 7 -3 9 4 5 6 -3 14 -1 18 6 4 7 4 10 -1 6 -4 -4 -15 -2
-23 5 -10 7 -13 8 -9 1 4 -7 -1 -14 -13 -17 -12 -3 -20 1 -23 12 -4 13 -5 13
-6 1 -1 -8 -12 -20 -26 -26 -23 -11 -24 -11 -14 8 9 16 8 19 -3 12 -7 -5 -20
-9 -28 -9 -8 0 -20 -4 -26 -8 -7 -4 -15 0 -18 9 -3 8 -10 13 -15 10 -5 -3 -8
2 -7 11 0 10 -5 18 -13 18 -13 0 -20 17 -23 52 -1 7 -10 15 -20 19 -10 3 -18
13 -18 22 0 15 -2 15 -10 2 -6 -9 -10 -10 -10 -3 0 6 5 15 10 18 6 4 8 11 4
16 -3 5 0 8 8 7 7 -2 13 6 13 17 1 28 14 47 27 39 7 -5 9 -1 5 9 -4 11 -2 14
8 11 7 -3 12 -14 10 -25 -2 -11 0 -17 6 -14 5 4 7 10 4 15 -3 5 3 13 12 19 10
5 14 13 10 17 -5 5 -12 2 -16 -5 -6 -9 -11 -10 -15 -2 -4 6 -2 11 4 11 6 0 9
4 5 9 -3 5 -1 12 3 15 5 3 8 19 7 35 -1 17 2 28 7 25 5 -4 7 -12 4 -20 -3 -8
0 -11 10 -7 8 3 12 8 10 11 -3 3 0 12 7 20 10 13 9 15 -8 8 -15 -5 -17 -4 -8
5 16 16 38 2 23 -16 -7 -9 -6 -16 3 -24 8 -6 17 -8 20 -4 4 3 7 3 7 -1 0 -4
-7 -14 -15 -23 -8 -8 -13 -19 -10 -24 4 -5 1 -9 -4 -9 -6 0 -11 -4 -11 -8 0
-5 7 -9 15 -9 8 0 12 4 9 9 -3 4 0 8 5 8 6 0 11 -5 11 -12 0 -6 3 -8 7 -4 5 4
0 13 -9 20 -16 12 -15 14 10 25 25 11 26 10 7 -4 -19 -15 -19 -16 3 -21 12 -4
22 -10 22 -14 0 -9 40 -23 55 -20 6 1 7 -2 3 -6 -4 -4 -3 -13 4 -21 9 -11 7
-12 -8 -7 -16 6 -17 5 -6 -7 9 -10 15 -10 24 -1 16 16 33 15 20 -1 -8 -10 -6
-13 8 -13 11 0 17 2 15 4 -7 8 20 30 30 24 6 -3 2 4 -9 16 -10 12 -23 19 -27
16 -5 -3 -6 2 -2 11 5 13 7 14 14 3 5 -8 9 -9 9 -2 0 16 -25 35 -35 26 -5 -4
-5 -1 -1 6 4 7 12 9 18 6 7 -5 8 -2 2 7 -8 14 -14 79 -7 79 3 0 13 -5 24 -10
30 -16 22 -3 -8 15 -16 9 -19 13 -8 9 11 -3 25 -7 31 -7 13 0 12 -36 -1 -57
-5 -8 -4 -11 3 -6 6 3 13 2 17 -4 3 -5 1 -10 -4 -10 -6 0 -3 -8 7 -18 9 -10
19 -17 21 -16 2 2 5 29 7 60 2 32 9 62 15 68 9 8 10 7 6 -6 -3 -10 -2 -20 4
-23 5 -4 8 -1 7 7 -2 7 3 12 11 10 12 -3 12 0 1 13 -7 8 -10 19 -6 22 4 4 11
1 17 -7 7 -11 8 -7 5 13 -4 23 -2 26 9 17 10 -9 13 -4 11 25 -1 25 3 35 14 35
12 0 13 2 1 9 -7 5 -11 14 -7 20 5 7 1 9 -11 4 -14 -5 -13 0 7 23 14 15 18 23
8 16 -11 -9 -18 -10 -23 -2 -3 6 -11 7 -17 4 -7 -4 -8 -2 -4 5 4 6 11 9 16 6
5 -3 12 -1 15 5 4 6 1 9 -7 8 -7 -2 -13 4 -13 12 -1 21 -15 41 -25 35 -11 -7
-21 21 -14 43 5 14 4 15 -5 2 -8 -11 -11 -12 -11 -2 0 7 -4 10 -10 7 -5 -3
-10 2 -10 12 0 12 -3 14 -8 6 -4 -7 -20 -10 -37 -7 -17 2 -35 5 -42 6 -8 1 -9
7 -2 20 14 26 2 22 -27 -9 -24 -27 -24 -27 -10 -3 11 18 12 29 5 40 -9 13 -10
12 -6 -2 3 -9 0 -18 -6 -21 -15 -5 -38 3 -33 11 2 4 -2 12 -8 18 -10 9 -15 7
-24 -7z m-62 -29 c-12 -23 -16 -24 -26 -8 -4 6 -3 8 3 5 6 -4 13 0 17 8 3 8 8
15 11 15 3 0 1 -9 -5 -20z m-43 -6 c-3 -3 -12 -4 -19 -1 -8 3 -5 6 6 6 11 1
17 -2 13 -5z m368 -94 c3 -5 -1 -10 -10 -10 -9 0 -13 5 -10 10 3 6 8 10 10 10
2 0 7 -4 10 -10z m-801 -8 c3 -5 -1 -9 -9 -9 -8 0 -12 4 -9 9 3 4 7 8 9 8 2 0
6 -4 9 -8z m482 -83 c10 -11 14 -20 9 -19 -25 5 -46 -1 -39 -12 4 -7 3 -8 -4
-4 -8 5 -8 13 0 31 6 14 12 25 13 25 1 0 10 -9 21 -21z m119 -78 c-3 -11 1
-24 12 -32 15 -13 16 -12 9 6 -5 15 -4 17 4 9 9 -9 8 -18 -5 -38 -10 -15 -20
-24 -23 -22 -3 3 1 13 9 23 12 15 12 16 -3 10 -10 -3 -20 -1 -24 5 -4 7 -3 8
4 4 7 -4 12 -3 12 3 0 5 -4 13 -10 16 -6 4 -5 11 3 20 16 19 19 18 12 -4z m61
-53 c4 -6 3 -8 -4 -4 -6 3 -15 -2 -21 -11 -6 -10 -11 -13 -11 -7 0 9 19 34 26
34 2 0 6 -5 10 -12z m-375 -55 c-5 -10 -11 -21 -13 -24 -1 -3 4 -14 12 -24 14
-18 13 -18 -11 0 -24 18 -25 21 -10 33 9 7 11 11 4 8 -6 -4 -15 -1 -19 5 -4 7
-3 9 2 6 6 -3 16 -2 24 4 21 12 22 11 11 -8z m455 -44 c0 -16 -2 -27 -4 -25
-2 3 -2 6 0 9 2 2 -3 11 -10 20 -8 9 -11 21 -7 27 10 17 20 2 21 -31z m-469
-33 c0 -15 -21 -16 -34 -1 -4 4 -2 5 5 1 6 -4 12 -2 12 3 0 6 4 11 8 11 5 0 9
-6 9 -14z m-292 -27 c4 -6 14 -8 22 -4 12 4 13 2 5 -8 -9 -11 -6 -14 18 -14
16 0 27 3 25 7 -2 3 7 6 21 6 13 0 24 -4 24 -8 0 -4 5 -8 11 -8 5 0 7 4 4 10
-4 6 1 7 11 3 11 -4 13 -8 6 -11 -7 -2 -10 -7 -8 -11 7 -11 -12 -36 -21 -28
-4 5 -1 12 7 17 8 6 12 10 8 10 -3 0 -13 3 -22 6 -12 4 -14 0 -10 -19 2 -14 0
-28 -6 -32 -6 -4 -7 1 -3 11 4 12 3 15 -5 10 -7 -4 -12 -2 -12 3 0 6 5 11 11
11 5 0 7 5 3 11 -4 8 -12 3 -21 -12 -8 -13 -12 -17 -9 -8 3 13 -2 16 -19 15
-13 0 -21 -4 -19 -8 2 -4 -1 -10 -7 -14 -8 -4 -9 -3 -5 4 4 7 2 13 -3 13 -6 1
-17 2 -23 3 -7 1 -12 9 -10 19 2 9 -3 17 -10 17 -9 0 -9 3 2 10 19 13 27 12
35 -1z m260 1 c3 -6 -1 -7 -9 -4 -18 7 -21 14 -7 14 6 0 13 -4 16 -10z m-50
-10 c-3 -6 1 -13 10 -16 13 -5 13 -9 3 -22 -11 -13 -9 -14 12 -8 14 4 21 4 15
-1 -14 -11 -17 -65 -3 -57 7 4 8 3 4 -5 -4 -6 -11 -9 -16 -6 -5 3 -11 1 -15
-5 -4 -6 -11 -8 -16 -5 -5 4 -9 1 -9 -5 0 -6 8 -9 18 -6 12 4 19 1 19 -8 0 -9
-6 -12 -16 -8 -13 5 -14 3 -4 -9 10 -12 8 -15 -7 -15 -10 0 -18 3 -18 6 2 26
-6 42 -31 54 -16 9 -31 13 -33 11 -3 -3 -5 2 -5 11 0 9 11 27 24 40 13 13 23
28 23 33 0 6 7 8 15 5 8 -4 12 -10 9 -15 -3 -5 3 -6 12 -2 16 6 16 7 0 19 -13
9 -14 13 -4 17 19 8 20 8 13 -3z m40 -11 c11 -16 1 -19 -13 -3 -7 8 -8 14 -3
14 5 0 13 -5 16 -11z m445 -19 c0 -5 -2 -10 -4 -10 -3 0 -8 5 -11 10 -3 6 -1
10 4 10 6 0 11 -4 11 -10z m-984 -22 c-9 -5 -16 -16 -16 -23 0 -8 -5 -15 -10
-15 -7 0 -7 6 0 20 6 11 8 20 5 20 -4 0 -4 4 0 10 3 5 13 6 21 3 15 -5 15 -7
0 -15z m464 -83 c0 -2 -9 -3 -19 -2 -11 0 -18 5 -15 9 4 6 34 0 34 -7z m-469
-22 c13 -16 12 -17 -3 -4 -10 7 -18 15 -18 17 0 8 8 3 21 -13z m624 -3 c-3 -5
-1 -11 4 -14 5 -3 7 -15 4 -26 -3 -11 -10 -17 -17 -13 -6 4 -5 -1 3 -10 7 -9
21 -17 30 -17 10 0 12 -3 5 -8 -16 -10 -9 -41 15 -66 12 -12 21 -27 21 -33 0
-6 6 -14 13 -16 9 -4 9 -6 0 -6 -7 -1 -19 13 -28 29 -17 33 -21 35 -31 18 -4
-7 -3 -8 4 -4 8 5 11 -1 9 -16 -1 -15 3 -22 12 -20 8 2 11 -3 8 -12 -4 -10 -1
-13 9 -9 8 3 21 -3 30 -13 14 -18 14 -18 7 1 -3 11 -3 17 1 13 4 -3 9 -12 11
-20 10 -42 19 -58 38 -64 20 -6 20 -7 -4 -20 -29 -16 -39 -17 -39 -3 0 5 4 8
8 5 4 -2 14 0 22 6 12 8 12 9 -2 4 -10 -3 -17 -2 -17 2 1 4 0 10 -1 15 -1 4
-3 12 -4 17 0 6 -5 10 -10 9 -5 0 -13 5 -18 13 -8 10 -9 10 -5 -2 2 -8 10 -14
16 -12 7 1 10 -2 7 -7 -4 -5 -2 -12 4 -16 12 -7 4 -25 -11 -25 -6 0 -8 4 -5 9
3 4 -3 18 -13 30 -14 16 -21 18 -25 9 -3 -7 -4 -3 -2 10 3 13 -1 22 -9 22 -7
0 -15 9 -18 20 -3 11 -10 20 -17 20 -6 0 -8 -4 -5 -10 3 -5 2 -10 -3 -10 -6 0
-12 7 -16 15 -3 8 0 15 6 15 6 0 8 3 5 7 -4 3 -16 -2 -28 -13 -13 -12 -19 -14
-17 -5 2 7 -3 16 -11 19 -8 2 -11 0 -8 -5 3 -5 -5 -9 -18 -9 -14 0 -27 6 -29
13 -4 10 -1 11 14 3 12 -7 21 -7 25 0 3 5 1 10 -5 10 -12 0 -10 37 3 58 5 7 3
12 -4 12 -7 0 -9 3 -5 7 4 5 14 0 21 -11 12 -16 13 -14 10 23 -3 30 0 39 8 34
7 -4 5 2 -3 12 -9 11 -10 16 -2 11 7 -4 12 -2 12 4 0 6 5 8 10 5 6 -4 8 -10 5
-15 -7 -11 22 -7 32 5 4 4 3 5 -4 1 -14 -8 -27 10 -13 19 6 4 7 11 4 17 -4 7
-2 8 5 4 6 -4 9 -11 6 -16z m45 14 c0 -8 -19 -13 -24 -6 -3 5 1 9 9 9 8 0 15
-2 15 -3z m350 -44 c0 -5 -5 -10 -11 -10 -5 0 -7 5 -4 10 3 6 8 10 11 10 2 0
4 -4 4 -10z m-735 -20 c-3 -5 -14 -10 -23 -10 -15 0 -15 2 -2 10 20 13 33 13
25 0z m356 -13 c-10 -9 -11 -8 -5 6 3 10 9 15 12 12 3 -3 0 -11 -7 -18z m-359
-41 c7 4 8 2 4 -5 -9 -13 -26 -5 -25 12 0 9 2 8 6 -1 2 -6 10 -9 15 -6z m-387
-5 c3 -5 2 -12 -3 -15 -5 -3 -9 1 -9 9 0 17 3 19 12 6z m1039 -52 c-3 -5 -10
-7 -15 -3 -5 3 -7 10 -3 15 3 5 10 7 15 3 5 -3 7 -10 3 -15z m47 -3 c5 3 7 9
5 13 -3 3 4 7 14 7 10 0 17 -7 15 -16 -1 -8 1 -22 6 -31 5 -11 3 -16 -6 -16
-8 0 -11 5 -8 10 4 6 1 7 -6 3 -7 -5 -10 -14 -7 -21 3 -9 -2 -12 -15 -10 -11
2 -19 -2 -19 -10 0 -9 6 -12 17 -8 15 6 16 5 3 -9 -8 -8 -22 -13 -32 -10 -10
2 -18 0 -18 -4 0 -5 -9 -15 -20 -22 -21 -13 -21 -12 -3 15 10 15 13 24 6 20
-6 -4 -13 -4 -16 0 -2 5 -2 3 -1 -4 2 -7 -2 -15 -8 -19 -6 -4 -8 -3 -4 4 3 6
2 14 -4 17 -8 5 -7 11 1 21 6 7 9 20 6 29 -4 8 -2 17 4 20 5 4 6 11 3 17 -4 6
1 6 14 -1 14 -7 23 -8 27 -1 4 6 11 8 16 4 5 -3 9 -2 8 3 -3 18 4 27 8 10 2
-9 9 -15 14 -11z m-656 -16 c-2 -11 3 -24 13 -30 9 -5 12 -10 5 -10 -6 0 -15
5 -18 10 -5 8 -12 7 -23 -2 -16 -12 -16 -11 -1 7 9 11 14 26 12 33 -3 6 0 12
6 12 5 0 8 -9 6 -20z m32 -52 c3 6 9 12 15 12 7 0 6 -5 -1 -14 -9 -11 -9 -16
0 -22 8 -4 9 -3 5 4 -4 7 -3 12 2 12 6 0 13 -7 16 -16 4 -10 2 -13 -6 -8 -8 5
-9 2 -5 -9 3 -9 3 -16 -1 -15 -11 2 -62 -21 -62 -28 0 -3 8 -3 18 0 16 6 16 5
0 -7 -13 -11 -15 -16 -6 -25 9 -9 9 -12 0 -12 -7 0 -12 3 -13 8 0 4 -2 17 -5
29 -3 18 2 24 22 29 17 5 22 10 15 17 -7 7 -16 6 -28 -4 -16 -12 -17 -12 -7 1
14 20 11 46 -5 42 -7 -1 -10 2 -6 8 4 6 13 5 27 -3 16 -9 22 -9 25 1z m693
-38 c0 -5 -5 -10 -11 -10 -5 0 -7 5 -4 10 3 6 8 10 11 10 2 0 4 -4 4 -10z
m-727 -116 c-7 -20 -19 -17 -19 5 0 11 6 17 13 14 6 -3 9 -11 6 -19z m24 -9
c0 -8 -4 -12 -9 -9 -5 3 -6 10 -3 15 9 13 12 11 12 -6z m43 -31 c0 -8 5 -14
11 -14 6 0 8 10 5 23 -3 12 -3 16 0 9 5 -10 9 -10 22 0 9 8 13 8 9 2 -4 -7 0
-14 8 -18 8 -3 14 0 12 6 -1 5 6 12 16 13 9 2 17 0 17 -4 0 -4 7 -8 15 -8 8 0
15 5 15 11 0 6 5 4 11 -4 8 -11 12 -12 16 -2 2 6 9 12 14 12 6 0 7 -5 4 -11
-4 -6 0 -9 11 -7 14 2 18 -2 16 -16 -2 -11 1 -15 7 -11 14 8 14 -1 1 -26 -8
-14 -7 -19 2 -19 8 0 6 -5 -5 -11 -9 -6 -14 -16 -11 -22 5 -8 2 -7 -7 1 -12
11 -12 14 1 23 13 9 13 10 0 6 -8 -2 -15 -10 -16 -18 0 -8 -4 -22 -9 -32 -6
-15 -10 -16 -17 -5 -5 8 -7 4 -4 -14 3 -15 0 -31 -6 -34 -6 -4 -8 -2 -4 4 3 6
2 13 -3 16 -11 7 -9 -13 3 -33 7 -10 6 -12 -4 -6 -10 6 -12 4 -6 -11 4 -10 4
-15 0 -12 -4 4 -15 3 -26 -3 -14 -8 -17 -14 -9 -23 8 -10 4 -16 -15 -25 -21
-9 -24 -14 -14 -26 7 -8 17 -12 23 -8 6 3 7 1 3 -6 -4 -6 -13 -8 -19 -4 -20
12 -34 11 -34 -2 0 -8 7 -11 15 -7 10 3 13 1 8 -6 -4 -7 -15 -12 -24 -12 -10
0 -13 -3 -7 -8 6 -4 11 -13 13 -21 3 -12 0 -12 -12 -2 -20 17 -33 8 -31 -21 1
-14 -6 -27 -19 -33 -12 -7 -20 -19 -18 -29 2 -10 -1 -16 -6 -12 -5 3 -9 -1 -9
-9 0 -8 3 -12 7 -10 4 2 7 -2 7 -9 0 -8 -10 -12 -24 -10 -12 1 -26 -3 -30 -8
-3 -7 -1 -8 5 -4 17 10 15 -9 -2 -23 -8 -7 -13 -22 -12 -35 2 -19 -1 -23 -18
-21 -33 4 -54 15 -60 31 -7 18 -30 18 -45 0 -13 -16 -51 -18 -51 -3 0 5 7 6
16 3 25 -10 37 4 17 21 -17 14 -17 14 1 5 14 -7 24 -4 40 12 11 11 20 25 18
30 -2 5 5 17 14 27 10 11 14 22 11 26 -4 3 -7 1 -7 -6 0 -7 -5 -9 -12 -5 -7 5
-8 3 -3 -6 5 -8 4 -11 -2 -7 -15 10 -24 -18 -10 -32 8 -8 8 -11 -1 -11 -7 0
-12 5 -12 10 0 6 -5 10 -11 10 -8 0 -8 -4 0 -14 15 -17 1 -28 -19 -15 -11 6
-12 9 -2 9 7 0 10 5 7 10 -3 6 1 13 9 16 9 3 14 10 11 14 -3 4 2 11 11 14 8 3
13 10 10 14 -6 10 24 9 41 -1 6 -4 14 -3 18 3 4 6 10 8 15 5 5 -3 12 0 16 6 4
8 3 9 -4 5 -7 -4 -13 -2 -13 3 -5 37 -7 52 -9 59 -1 4 -2 11 -1 15 1 5 -3 6
-9 2 -6 -3 -7 -12 -4 -18 4 -7 3 -9 -1 -4 -10 8 -15 48 -6 43 3 -2 12 2 19 10
7 8 8 14 2 14 -5 0 -1 9 10 20 22 22 26 40 10 40 -5 0 -9 -3 -9 -7 3 -21 -2
-33 -12 -27 -8 4 -7 9 2 15 8 5 10 9 5 9 -5 0 -3 7 4 15 7 8 17 12 24 8 6 -3
2 4 -9 16 -11 12 -15 22 -10 21 21 -5 36 1 30 10 -3 6 1 13 9 16 9 3 16 10 16
16 0 5 -4 6 -10 3 -17 -10 -11 4 10 27 17 18 18 23 5 41 -17 24 -3 49 22 40
12 -5 14 -1 8 17 -5 17 -4 21 6 15 9 -6 11 -3 6 9 -4 10 -3 15 3 11 6 -3 10
-13 10 -21z m-265 -12 c3 -8 1 -20 -4 -25 -6 -6 -9 -3 -8 8 1 10 -5 20 -13 22
-13 4 -13 3 0 -6 12 -9 13 -13 2 -20 -11 -6 -10 -10 3 -15 9 -3 20 -4 24 -1 5
2 6 -8 4 -23 -3 -22 -2 -23 5 -8 8 19 9 19 14 -2 4 -12 2 -20 -2 -17 -5 3 -11
1 -15 -5 -3 -5 -2 -10 3 -10 4 0 8 -13 8 -30 0 -19 -5 -30 -14 -30 -11 0 -12
-3 -3 -14 8 -10 8 -16 -2 -25 -8 -6 -18 -7 -22 -3 -5 4 -5 -2 -1 -12 7 -19 6
-19 -14 -1 -11 10 -20 13 -20 7 0 -6 4 -13 9 -16 5 -4 8 -14 6 -24 -2 -9 -4
-20 -4 -24 -1 -5 -6 -8 -13 -8 -9 0 -9 3 0 12 8 8 9 15 1 25 -7 7 -8 13 -4 13
4 0 2 6 -4 14 -9 11 -8 15 5 20 9 3 21 3 27 0 7 -3 3 1 -7 10 -10 8 -23 13
-29 9 -6 -4 -7 -1 -3 6 5 7 15 10 23 6 13 -4 14 -3 4 9 -7 8 -9 21 -5 27 4 7
3 9 -3 6 -6 -4 -14 0 -17 9 -5 12 -2 15 11 10 15 -5 15 -4 -1 9 -23 18 -29 44
-14 62 8 10 7 12 -5 7 -10 -3 -15 -1 -13 8 3 22 17 39 27 33 5 -4 9 -2 9 3 0
15 48 1 55 -16z m219 12 c18 -18 21 -28 6 -19 -6 4 -18 1 -27 -7 -10 -7 -14
-8 -10 -1 4 6 4 13 0 16 -5 2 -2 2 5 1 6 -2 12 1 12 5 0 5 -6 12 -12 14 -9 4
-10 6 -1 6 6 1 19 -6 27 -15z m-439 -43 c3 -5 2 -12 -3 -15 -5 -3 -9 1 -9 9 0
17 3 19 12 6z m125 -45 c0 -2 -6 -9 -14 -15 -11 -9 -16 -9 -22 0 -4 7 -3 9 4
5 6 -3 13 -2 17 4 6 10 15 14 15 6z m300 -11 c-7 -9 -15 -13 -19 -10 -3 3 1
10 9 15 21 14 24 12 10 -5z m-25 -45 c3 -5 1 -10 -4 -10 -6 0 -11 5 -11 10 0
6 2 10 4 10 3 0 8 -4 11 -10z m-715 -18 c0 -7 5 -10 10 -7 6 4 7 11 4 17 -4 6
0 6 13 -1 11 -6 23 -7 27 -4 3 3 6 -1 6 -10 0 -9 5 -19 12 -23 7 -5 9 -2 6 8
-5 11 0 14 19 10 19 -4 22 -7 11 -14 -9 -7 -7 -8 10 -5 12 3 19 1 16 -4 -3 -5
2 -12 10 -15 19 -7 21 -30 4 -37 -7 -3 -3 -6 10 -6 16 -1 21 3 16 12 -5 8 -2
7 9 -2 12 -10 14 -17 7 -26 -12 -14 11 -40 25 -27 5 4 4 1 0 -7 -6 -11 -4 -13
8 -8 11 4 17 1 17 -8 0 -8 6 -15 13 -16 9 0 9 -2 -1 -6 -10 -4 -8 -8 5 -18 10
-7 18 -19 18 -27 1 -7 5 -12 11 -11 5 1 11 -7 11 -18 1 -10 -3 -19 -9 -19 -7
0 -5 -7 4 -17 8 -10 13 -30 12 -45 -2 -15 1 -30 7 -33 16 -11 10 -25 -12 -25
-11 0 -17 -5 -14 -10 4 -6 11 -7 17 -4 7 4 8 2 4 -5 -4 -6 -13 -8 -19 -4 -7 4
-15 8 -19 9 -5 1 -11 2 -15 3 -5 1 -1 6 7 11 12 8 12 10 1 10 -8 0 -11 7 -8
20 3 10 0 21 -7 24 -7 3 -6 8 4 15 13 9 13 11 -1 11 -9 0 -15 8 -15 21 1 12
-5 23 -12 25 -7 1 -8 0 -2 -3 15 -7 12 -20 -4 -20 -7 0 -13 7 -11 16 1 9 -2
22 -8 29 -6 8 -6 12 2 12 6 0 11 -5 11 -12 0 -6 3 -8 7 -5 3 4 -4 18 -17 32
-13 14 -20 25 -15 25 4 0 0 9 -10 20 -10 11 -24 20 -32 20 -8 0 -11 5 -7 12 5
8 2 9 -9 5 -9 -3 -19 -2 -22 4 -4 5 -11 7 -16 4 -5 -4 -9 2 -9 11 0 16 1 16
18 1 15 -14 19 -14 19 -3 0 8 -5 14 -11 13 -5 -1 -10 3 -11 10 0 6 -4 15 -9
20 -5 4 -6 3 -2 -4 4 -7 -2 -17 -14 -23 -11 -6 -20 -7 -19 -3 4 22 -3 33 -19
33 -10 0 -24 -6 -31 -12 -9 -9 -12 -9 -7 -1 8 15 -14 23 -36 12 -10 -6 -19 -5
-23 1 -3 5 -12 7 -20 4 -8 -4 -12 -10 -9 -15 3 -5 0 -9 -6 -9 -6 0 -9 -4 -6
-8 7 -12 -26 -11 -41 0 -8 7 -10 3 -6 -13 5 -18 3 -21 -12 -15 -16 6 -16 4 -4
-11 7 -10 9 -15 5 -11 -5 4 -16 2 -24 -5 -11 -8 -14 -8 -9 0 4 6 2 15 -5 19
-7 4 -10 3 -5 -1 4 -5 -1 -17 -10 -27 -16 -18 -16 -19 3 -12 18 6 18 5 -1 -13
-12 -10 -27 -27 -35 -37 -12 -16 -12 -18 -1 -11 10 5 12 4 7 -3 -4 -7 -15 -12
-24 -13 -10 0 -12 -3 -5 -5 14 -6 -4 -54 -20 -54 -5 0 -7 -7 -3 -15 3 -8 0
-15 -7 -16 -8 0 -9 -2 -1 -5 13 -5 7 -41 -10 -63 -9 -12 -8 -13 6 -8 12 4 15
2 12 -8 -3 -8 -11 -12 -17 -9 -7 2 -17 -4 -24 -14 -9 -15 -8 -19 3 -19 7 0 11
4 8 8 -2 4 5 7 16 6 18 -1 18 -3 -7 -29 -15 -15 -21 -28 -15 -28 7 0 12 4 12
8 0 5 7 9 15 9 11 0 12 -4 4 -14 -6 -7 -9 -19 -6 -27 3 -7 0 -19 -6 -26 -9
-10 -9 -12 4 -7 12 4 15 -2 13 -32 -1 -20 3 -42 10 -50 8 -11 8 -13 -1 -7 -7
4 -13 2 -13 -3 0 -6 4 -11 9 -11 5 0 13 -9 16 -20 4 -12 11 -17 18 -13 8 4 7
1 -1 -9 -10 -13 -10 -18 -1 -24 8 -5 9 -3 4 6 -6 9 -4 11 4 6 7 -5 10 -14 7
-21 -2 -7 1 -18 7 -24 9 -9 7 -11 -8 -6 -16 5 -17 5 -5 -3 10 -8 19 -7 29 1
12 9 13 9 7 0 -4 -8 -2 -13 4 -13 7 0 10 -7 7 -15 -4 -8 -2 -17 4 -20 5 -4 6
-12 3 -18 -4 -7 -4 -9 1 -5 4 4 15 2 23 -5 13 -10 15 -9 8 7 -7 19 -6 19 13 2
11 -10 18 -24 14 -30 -4 -6 0 -5 9 2 13 10 22 11 37 2 12 -6 21 -13 21 -16 0
-3 -6 -2 -12 2 -7 4 -10 3 -5 -1 14 -16 50 -15 75 1 15 10 21 11 17 3 -6 -9
-3 -11 8 -6 10 4 15 1 13 -6 -1 -7 2 -2 8 10 7 17 16 22 34 18 21 -3 22 -2 10
12 -11 14 -11 15 1 9 8 -5 17 -3 23 5 8 11 9 10 4 -3 -3 -10 0 -20 6 -24 6 -4
8 -3 5 3 -4 6 0 14 9 17 9 3 14 12 11 19 -7 21 12 47 30 40 11 -4 14 -3 9 5
-4 7 -1 12 8 12 8 0 18 5 22 12 5 7 3 8 -6 3 -8 -5 -5 5 6 24 18 30 19 30 29
11 6 -11 14 -18 18 -14 3 4 4 -11 2 -32 -3 -21 -9 -41 -13 -44 -4 -3 -13 -17
-21 -32 -8 -16 -18 -28 -23 -28 -5 0 -1 12 8 28 11 18 11 21 2 10 -8 -10 -17
-15 -20 -12 -3 2 -5 -3 -5 -13 0 -10 -1 -27 -2 -37 -1 -20 -1 -20 -16 0 -14
18 -14 18 -10 -4 4 -20 2 -22 -11 -11 -12 10 -13 9 -9 -3 4 -9 -1 -18 -10 -22
-9 -3 -14 -10 -11 -15 4 -5 -5 -8 -19 -6 -20 2 -23 0 -14 -12 10 -11 8 -12 -7
-6 -10 3 -22 11 -26 17 -4 6 -8 0 -8 -13 0 -24 0 -24 -16 -5 -8 10 -13 14 -10
7 4 -6 2 -14 -4 -18 -5 -3 -10 2 -10 11 0 16 -1 16 -16 -2 -10 -12 -14 -13
-11 -4 3 10 -3 15 -18 15 -13 0 -21 -3 -19 -6 2 -4 -3 -10 -12 -13 -9 -3 -12
-2 -9 4 4 7 -3 9 -19 6 -15 -3 -24 -1 -21 5 4 5 11 6 17 3 7 -4 8 -2 4 4 -5 9
-13 9 -29 1 -12 -7 -19 -8 -15 -4 5 5 -2 13 -15 20 -12 6 -21 18 -21 27 1 11
-4 14 -14 11 -10 -4 -13 -2 -8 5 5 8 -2 12 -21 12 -20 0 -24 3 -14 9 11 7 10
11 -6 20 -11 5 -22 8 -25 6 -2 -2 -4 5 -5 16 -1 10 -9 26 -17 35 -30 29 -39
56 -25 65 11 7 11 9 -2 9 -13 0 -16 9 -15 40 2 33 0 37 -13 27 -12 -9 -13 -9
-7 1 5 8 1 12 -11 13 -16 0 -16 1 1 8 18 7 18 8 2 14 -10 4 -16 13 -13 21 3 7
0 19 -6 26 -10 10 -8 11 8 6 16 -6 18 -5 8 5 -15 15 -17 33 -3 24 6 -3 7 1 4
9 -3 9 -10 13 -15 10 -16 -10 -9 8 8 23 10 8 13 12 7 9 -14 -7 -27 21 -15 29
5 3 7 14 4 25 -3 12 0 20 6 20 7 0 9 5 6 10 -4 6 -11 8 -16 5 -5 -4 -9 -1 -9
4 0 6 4 11 8 11 8 0 12 22 15 67 1 22 12 22 12 1 0 -6 7 -13 15 -15 9 -3 11
-1 5 4 -6 4 -10 14 -9 21 1 6 2 21 3 33 1 12 5 17 13 13 7 -5 8 -3 2 7 -13 21
-14 40 -1 32 7 -4 8 0 3 12 -6 16 -4 16 10 4 16 -13 16 -12 6 8 -11 19 -9 21
11 16 18 -4 19 -3 7 6 -13 9 -13 12 -1 20 8 5 10 14 6 21 -5 8 -4 11 3 6 13
-8 35 28 24 39 -4 5 -1 5 6 1 8 -5 12 -1 12 11 0 15 2 16 10 3 9 -13 14 -7 11
13 0 4 4 7 10 7 5 0 7 6 3 13 -6 9 -5 9 7 0 13 -10 16 -10 16 2 0 8 -5 15 -10
15 -6 0 -7 3 -4 6 4 4 14 1 24 -7 15 -12 16 -12 9 6 -4 11 -4 16 0 12 4 -4 14
-1 22 5 11 10 17 8 28 -7 8 -10 14 -13 14 -7 0 7 8 12 18 12 15 0 15 2 2 11
-13 9 -13 10 1 6 9 -3 21 -2 27 2 19 12 52 7 52 -7z m695 -2 c3 -5 1 -10 -4
-10 -6 0 -11 5 -11 10 0 6 2 10 4 10 3 0 8 -4 11 -10z m980 -20 c3 -5 1 -10
-4 -10 -6 0 -11 5 -11 10 0 6 2 10 4 10 3 0 8 -4 11 -10z m-262 -63 c-3 -5 4
-4 15 2 25 13 35 14 28 2 -3 -4 6 -7 19 -5 14 1 23 -2 19 -7 -3 -5 2 -9 11 -9
14 0 16 -6 11 -27 l-6 -28 15 25 c10 18 14 20 15 8 0 -9 14 -28 30 -41 28 -24
42 -45 20 -32 -5 3 -10 1 -10 -4 0 -15 13 -14 28 1 9 9 11 5 8 -21 -3 -24 0
-31 10 -27 8 3 14 1 14 -5 0 -6 5 -7 12 -3 7 4 8 3 4 -5 -4 -6 -12 -9 -17 -6
-5 3 -6 -1 -3 -9 3 -9 11 -13 17 -9 6 4 8 0 4 -10 -4 -10 -2 -17 5 -17 7 0 6
-5 -2 -15 -15 -18 -10 -25 17 -28 11 0 20 -7 20 -14 0 -9 -4 -10 -13 -2 -8 7
-14 6 -20 -2 -4 -8 -3 -9 4 -5 8 5 12 0 12 -13 0 -12 5 -21 10 -21 6 0 10 -5
10 -11 0 -5 -4 -8 -8 -5 -5 3 -9 -1 -9 -9 0 -8 4 -12 9 -9 4 3 8 0 8 -5 0 -6
-6 -11 -12 -12 -7 0 -4 -4 7 -9 11 -5 14 -9 8 -9 -7 -1 -13 -6 -13 -12 0 -5 4
-8 8 -5 5 3 8 -4 7 -15 -1 -11 -8 -25 -16 -30 -11 -7 -10 -9 6 -10 11 0 14 -3
8 -6 -7 -2 -13 -9 -13 -14 0 -6 4 -8 9 -5 5 4 7 -3 4 -14 -3 -11 -9 -18 -12
-15 -4 2 -8 -2 -8 -10 0 -8 4 -12 8 -9 4 2 11 -1 15 -7 4 -8 3 -9 -4 -5 -7 4
-12 2 -12 -4 0 -6 -5 -8 -12 -4 -8 5 -7 0 2 -11 14 -17 13 -18 -2 -12 -12 4
-15 2 -11 -8 3 -8 10 -12 16 -8 6 4 7 1 3 -6 -5 -7 -14 -10 -21 -7 -10 4 -11
-2 -5 -25 6 -21 5 -27 -2 -23 -7 5 -9 1 -5 -9 6 -16 -3 -22 -26 -18 -5 1 -6
-3 -2 -9 3 -6 12 -7 18 -4 7 4 -1 -5 -16 -20 -17 -15 -26 -33 -23 -41 3 -9 -1
-15 -10 -15 -9 0 -12 -5 -8 -12 5 -8 2 -9 -11 -4 -16 6 -16 4 -4 -11 12 -14
12 -16 0 -8 -11 6 -13 4 -9 -7 4 -8 0 -15 -8 -15 -7 0 -11 4 -8 8 2 4 0 10 -5
13 -5 4 -8 -5 -6 -19 1 -14 -2 -28 -8 -32 -6 -3 -7 -1 -4 4 4 6 0 13 -8 16 -9
4 -12 1 -8 -9 3 -8 -1 -14 -11 -14 -9 0 -16 -5 -16 -10 0 -6 -15 -9 -35 -7
-20 3 -38 1 -40 -3 -3 -5 6 -7 20 -5 14 1 28 -1 30 -5 2 -4 -6 -6 -18 -6 -12
1 -28 -3 -36 -8 -11 -8 -13 -8 -7 1 4 8 2 13 -4 13 -6 0 -8 5 -4 12 6 10 5 10
-8 1 -8 -7 -18 -10 -21 -7 -3 4 -20 1 -37 -4 -17 -6 -29 -8 -26 -4 3 5 1 14
-5 22 -7 13 -9 13 -9 -1 0 -9 -7 -16 -15 -16 -8 0 -12 3 -10 6 2 4 -4 15 -12
26 -10 13 -14 14 -10 4 3 -9 0 -16 -9 -16 -7 0 -11 4 -9 8 9 14 -7 40 -24 38
-30 -3 -34 1 -20 19 7 9 9 14 5 10 -11 -10 -57 43 -49 55 3 6 1 7 -5 3 -6 -3
-13 -2 -17 4 -3 5 -1 10 6 10 7 0 4 7 -7 16 -10 8 -12 13 -4 9 8 -4 7 0 -4 9
-10 8 -16 22 -13 31 4 9 1 15 -10 15 -13 0 -14 2 -2 17 10 11 10 14 2 9 -13
-7 -17 4 -14 32 1 7 -7 29 -18 48 -12 19 -17 33 -12 29 5 -3 9 8 9 24 -1 19
-5 28 -12 24 -6 -4 -5 1 3 10 8 10 11 20 8 24 -4 3 -2 12 3 18 7 9 7 21 0 40
-9 24 -8 26 7 21 10 -4 14 -4 11 -1 -4 4 -3 17 2 29 5 13 4 30 -2 40 -7 13 -7
17 0 12 5 -3 13 1 16 10 4 10 2 13 -7 8 -9 -5 -9 -4 0 6 8 9 9 17 3 25 -7 9
-5 17 7 26 11 9 14 10 9 2 -4 -8 -2 -13 4 -13 6 0 10 8 8 18 -2 9 6 25 17 35
11 10 13 15 5 11 -12 -7 -12 -4 2 16 9 14 24 24 33 23 10 0 14 4 11 13 -3 7 0
16 6 20 6 4 8 3 5 -3 -4 -6 0 -13 8 -17 8 -3 15 -11 15 -18 0 -10 -2 -10 -9 0
-7 11 -9 11 -14 -2 -4 -9 -3 -15 1 -15 26 4 34 -1 22 -16 -11 -13 -10 -14 4
-9 11 4 16 1 16 -11 0 -10 -5 -13 -12 -9 -7 4 -8 3 -4 -5 6 -9 11 -9 22 0 9 7
14 8 13 3 -4 -23 2 -35 14 -28 9 6 9 4 1 -7 -11 -16 -11 -56 1 -67 5 -4 5 1 2
11 -9 23 6 22 28 -3 10 -11 13 -20 7 -20 -7 0 -12 5 -12 12 0 6 -3 8 -7 5 -3
-4 2 -16 12 -27 9 -10 15 -26 12 -33 -4 -11 0 -13 16 -10 20 4 20 3 4 -7 -9
-6 -15 -16 -11 -21 4 -6 12 -5 22 3 10 7 14 8 10 4 -4 -5 -2 -16 5 -24 8 -11
8 -14 0 -9 -6 4 -15 3 -18 -3 -4 -6 -3 -10 2 -9 31 5 37 -9 18 -41 -5 -10 -1
-8 13 3 12 11 26 16 33 11 7 -4 10 -3 5 4 -3 6 2 16 11 22 16 10 16 11 1 6
-23 -7 -33 11 -16 31 7 9 8 14 2 10 -7 -4 -15 0 -18 9 -3 8 -2 13 3 9 10 -6 9
21 -2 31 -3 4 -15 1 -24 -7 -17 -13 -17 -13 -4 4 10 12 11 21 5 25 -15 10 -27
45 -12 36 18 -12 -3 19 -25 35 -10 7 -16 19 -13 27 3 7 -3 18 -12 23 -10 6
-12 11 -4 11 15 0 16 30 1 30 -5 0 -7 -5 -3 -12 4 -7 3 -8 -5 -4 -9 6 -9 11 1
24 10 12 10 14 0 8 -7 -4 -15 -1 -18 8 -3 9 -11 13 -18 10 -6 -3 -2 2 8 10 20
16 20 16 0 16 -16 0 -17 2 -4 10 8 5 10 10 5 10 -6 0 -11 9 -12 20 -1 11 2 18
7 15 4 -3 10 2 13 10 4 9 20 14 49 13 51 -1 80 10 71 26 -3 6 3 2 14 -9 11
-11 18 -24 16 -28z m22 23 c3 -5 1 -10 -4 -10 -6 0 -11 5 -11 10 0 6 2 10 4
10 3 0 8 -4 11 -10z m149 -96 c7 -19 2 -18 -19 6 -16 17 -16 20 -3 15 9 -4 19
-13 22 -21z m-1568 -55 c10 -8 15 -9 11 -2 -9 14 22 11 31 -4 4 -5 14 -13 22
-16 12 -4 12 -6 -2 -6 -9 -1 -22 7 -27 17 -6 9 -11 11 -11 5 0 -7 11 -19 24
-28 17 -12 22 -22 18 -42 -3 -17 -1 -24 6 -19 11 7 10 -20 -1 -29 -4 -3 -5 -2
-2 2 7 9 -16 34 -26 27 -5 -3 -9 -11 -9 -17 0 -7 4 -6 10 3 7 12 9 10 7 -7 -1
-20 -3 -21 -18 -7 -9 8 -23 12 -34 8 -14 -6 -16 -4 -9 7 12 20 14 40 3 33 -5
-3 -7 -10 -4 -15 13 -20 -13 -8 -29 14 -9 12 -15 17 -13 11 1 -7 -11 -24 -27
-39 -16 -15 -26 -20 -23 -11 4 9 2 16 -3 16 -6 0 -10 -7 -10 -16 0 -8 -4 -13
-9 -10 -5 3 -11 -1 -14 -9 -4 -10 -1 -12 11 -9 9 3 1 -4 -18 -16 -29 -17 -31
-20 -10 -15 14 2 19 2 13 -1 -7 -3 -13 -12 -13 -19 0 -7 -8 -16 -17 -19 -12
-5 -13 -10 -5 -18 8 -8 8 -17 1 -30 -6 -11 -6 -18 0 -18 5 0 7 -10 3 -22 -3
-12 -1 -19 5 -15 5 3 10 0 10 -8 0 -8 -4 -12 -9 -9 -4 3 -8 0 -8 -5 0 -6 4
-11 10 -11 5 0 7 -6 4 -14 -4 -11 0 -13 18 -9 18 4 20 3 8 -6 -14 -10 -7 -16
15 -11 6 1 5 -4 -2 -11 -9 -9 -8 -15 6 -28 11 -11 12 -13 1 -6 -12 7 -13 7 -3
-5 7 -7 22 -14 33 -15 15 -1 17 1 8 12 -8 11 -7 12 5 7 8 -3 18 -12 21 -21 5
-11 10 -13 20 -4 7 6 16 9 19 6 4 -3 5 -2 2 2 -9 12 29 32 42 21 7 -6 26 -8
43 -6 27 4 29 3 15 -12 -11 -13 -12 -19 -3 -28 9 -9 9 -12 -1 -12 -7 0 -9 -5
-5 -12 6 -10 4 -10 -8 0 -13 11 -18 11 -24 0 -5 -7 -9 -17 -10 -23 0 -5 -2
-17 -3 -25 -1 -13 -2 -13 -11 0 -6 9 -13 11 -17 5 -15 -20 -52 -35 -59 -24 -3
6 -12 8 -20 5 -9 -3 -11 0 -7 12 6 15 5 15 -10 3 -10 -8 -20 -11 -24 -7 -3 3
-1 6 5 6 7 0 12 4 12 10 0 5 -7 7 -15 4 -10 -4 -13 0 -11 13 3 14 -2 19 -17
20 -12 0 -16 -1 -9 -4 6 -3 12 -9 12 -15 0 -6 -6 -6 -15 2 -8 6 -13 17 -12 23
1 7 -7 11 -18 9 -17 -2 -17 -1 -5 8 13 9 12 13 -9 30 -13 11 -20 20 -16 20 4
0 2 7 -5 15 -8 10 -9 15 -2 15 6 0 9 7 6 15 -4 8 -11 12 -18 8 -6 -4 -4 2 4
12 9 11 10 16 3 11 -11 -6 -18 6 -11 17 1 1 -4 13 -11 26 -7 13 -9 21 -3 18 5
-4 14 6 21 21 11 25 10 26 -4 8 -12 -17 -17 -18 -28 -6 -7 8 -8 10 -1 7 13 -7
24 13 24 44 0 10 5 19 11 19 8 0 7 6 -2 17 -12 14 -12 16 0 8 11 -6 13 -4 8
10 -5 11 -1 23 10 32 10 8 13 12 7 9 -6 -3 -11 2 -11 10 0 8 6 13 12 10 20 -7
37 15 24 31 -9 10 -7 13 7 14 11 1 23 1 28 0 5 -1 4 4 -2 12 -12 14 -7 27 10
27 5 0 6 -4 3 -10 -3 -5 -1 -10 4 -10 14 0 14 13 0 27 -8 8 -7 13 2 18 7 5 10
4 5 -3 -4 -7 3 -9 21 -7 16 2 34 4 41 4 7 1 11 5 8 9 -8 14 31 7 50 -9z m651
-4 c0 -8 -4 -15 -9 -15 -10 0 -11 14 -1 23 9 10 10 9 10 -8z m1118 -5 c3 -5 1
-10 -4 -10 -6 0 -11 5 -11 10 0 6 2 10 4 10 3 0 8 -4 11 -10z m-1115 -36 c0
-1 -6 -6 -12 -10 -7 -4 -10 -4 -6 1 4 4 -3 16 -15 27 l-22 19 28 -17 c15 -9
27 -18 27 -20z m118 -18 c-7 -8 -17 -12 -22 -9 -4 3 -2 9 5 14 22 13 31 11 17
-5z m-231 -16 c-2 -11 -6 -22 -9 -26 -4 -3 -5 2 -3 13 2 10 4 21 4 26 1 4 3 7
6 7 3 0 4 -9 2 -20z m262 -6 c-6 -8 -15 -12 -18 -8 -3 4 0 9 7 11 6 3 9 10 6
15 -4 7 -2 8 5 4 9 -6 9 -11 0 -22z m-979 0 c0 -8 -19 -13 -24 -6 -3 5 1 9 9
9 8 0 15 -2 15 -3z m140 -13 c0 -6 -4 -12 -8 -15 -5 -3 -9 1 -9 9 0 8 4 15 9
15 4 0 8 -4 8 -9z m170 -22 c12 -8 10 -9 -7 -4 -12 3 -25 1 -29 -6 -4 -7 -2
-10 7 -7 8 3 22 1 31 -4 14 -6 15 -14 8 -32 -5 -13 -6 -27 -2 -31 3 -3 0 -10
-8 -16 -13 -8 -13 -10 0 -19 11 -7 11 -10 2 -10 -7 0 -15 7 -18 15 -4 8 -11
12 -17 8 -6 -3 -7 -1 -3 5 3 6 -2 15 -11 21 -23 14 -8 14 17 1 16 -8 18 -8 14
5 -3 8 -10 12 -15 9 -5 -3 -9 -1 -9 5 0 6 -8 8 -17 5 -10 -3 -7 1 6 9 15 9 20
17 12 21 -6 4 -11 2 -11 -4 0 -6 -5 -8 -10 -5 -6 4 -1 14 12 25 27 23 28 23
48 9z m190 -13 c0 -2 -7 -7 -16 -10 -8 -3 -12 -2 -9 4 6 10 25 14 25 6z m710
-56 c-6 -11 -13 -20 -16 -20 -2 0 0 9 6 20 6 11 13 20 16 20 2 0 0 -9 -6 -20z
m-1061 -30 c4 0 11 4 17 10 6 6 10 3 11 -11 2 -16 -2 -19 -15 -14 -13 5 -14 3
-5 -6 6 -6 9 -19 5 -28 -5 -14 -4 -14 14 -1 18 14 18 14 2 -5 -12 -15 -14 -25
-7 -37 8 -15 7 -16 -8 -11 -16 6 -16 5 -4 -10 8 -10 11 -20 7 -24 -3 -3 -6 0
-6 8 0 11 -2 11 -10 -1 -6 -9 -10 -10 -10 -3 0 6 -9 10 -19 8 -15 -3 -19 1
-16 16 2 10 7 24 10 29 11 17 -7 11 -22 -7 -13 -17 -13 -17 -5 2 5 11 8 32 7
47 -1 15 2 25 7 22 4 -3 5 -10 2 -16 -5 -7 -2 -8 7 -3 12 8 12 6 0 -8 -13 -17
-6 -23 22 -18 11 2 9 -17 -3 -24 -6 -4 -8 -11 -4 -16 3 -5 10 -7 15 -3 5 3 6
10 3 16 -4 6 -3 8 3 5 5 -3 10 0 10 8 0 14 -10 19 -29 16 -5 0 -8 4 -8 10 0 6
7 8 16 5 10 -4 13 -2 8 6 -5 7 -3 8 6 3 8 -5 7 1 -3 16 -9 13 -16 30 -16 39 1
11 2 11 6 -2 2 -10 8 -18 12 -18z m-21 -5 c8 -17 8 -25 1 -25 -6 0 -13 9 -16
20 -3 11 -10 17 -16 13 -6 -3 -7 -1 -3 5 11 18 22 14 34 -13z m597 -6 c1 -8 7
-13 14 -11 7 1 10 -2 6 -8 -9 -14 8 -13 23 2 7 7 12 8 12 4 0 -5 -8 -15 -17
-23 -17 -14 -17 -14 2 -8 11 3 16 3 13 -1 -4 -4 -1 -16 7 -28 18 -25 20 -50 3
-40 -7 4 -4 -3 7 -16 15 -18 16 -22 4 -18 -15 6 -15 4 -10 -44 1 -4 7 -6 14
-4 6 1 9 1 5 -1 -4 -3 -10 -3 -12 -1 -3 2 -12 -6 -20 -17 -8 -11 -19 -21 -25
-21 -6 -1 -12 -2 -13 -4 -8 -5 -37 -7 -37 -2 3 21 -3 32 -13 27 -7 -4 -4 1 6
9 19 15 12 22 -17 17 -4 -1 -2 8 5 18 10 16 15 18 28 8 12 -9 13 -9 3 3 -10
11 -10 17 2 30 13 14 13 17 0 17 -8 0 -12 -4 -9 -8 2 -4 -1 -11 -7 -15 -8 -5
-10 0 -6 17 3 13 2 31 -3 39 -5 9 -5 19 2 27 8 10 4 15 -13 23 -21 8 -21 10
-4 9 35 -2 46 1 40 11 -3 5 -11 8 -18 6 -7 -1 -8 -1 -3 2 4 2 2 8 -5 13 -10 6
-6 8 11 6 14 -2 25 -10 25 -18z m342 -6 c-4 -3 -2 -12 4 -19 7 -8 6 -14 -2
-20 -7 -4 -9 -3 -5 4 3 6 2 13 -4 17 -10 6 -5 25 7 25 4 0 3 -3 0 -7z m133
-33 c0 -5 -4 -10 -10 -10 -5 0 -10 5 -10 10 0 6 5 10 10 10 6 0 10 -4 10 -10z
m-1122 -25 c-3 -3 -9 2 -12 12 -6 14 -5 15 5 6 7 -7 10 -15 7 -18z m595 10
c-3 -9 -8 -14 -10 -11 -3 3 -2 9 2 15 9 16 15 13 8 -4z m-370 -44 c-2 -6 5
-11 15 -12 10 0 12 -3 5 -6 -7 -2 -13 -9 -13 -14 0 -6 6 -7 13 -3 6 4 4 -2 -6
-13 -15 -18 -50 -27 -47 -12 1 2 -3 16 -9 31 -9 23 -8 26 6 21 12 -5 15 -2 10
9 -4 11 -1 15 11 13 9 -1 16 -8 15 -14z m147 -1 c-8 -5 -19 -10 -25 -10 -5 0
-3 5 5 10 8 5 20 10 25 10 6 0 3 -5 -5 -10z m230 0 c0 -5 -5 -10 -11 -10 -5 0
-7 5 -4 10 3 6 8 10 11 10 2 0 4 -4 4 -10z m-215 -20 c-3 -5 2 -10 12 -11 11
0 13 -3 5 -6 -7 -3 -19 0 -26 6 -9 8 -13 7 -13 -4 0 -7 5 -13 11 -12 6 1 10
-4 9 -10 -2 -7 2 -13 7 -13 6 0 10 -5 10 -11 0 -6 -7 -9 -15 -5 -13 4 -14 2
-5 -14 9 -16 8 -18 -6 -13 -12 4 -15 3 -10 -5 5 -8 2 -10 -8 -6 -16 6 -20 17
-17 43 2 7 -2 10 -9 6 -7 -4 -4 5 6 21 11 15 13 25 7 21 -7 -5 -13 -4 -13 2 0
9 20 17 48 20 7 0 10 -3 7 -9z m365 6 c0 -2 -7 -7 -16 -10 -8 -3 -12 -2 -9 4
6 10 25 14 25 6z m-152 -31 c-3 -3 -9 2 -12 12 -6 14 -5 15 5 6 7 -7 10 -15 7
-18z m-543 5 c3 -6 -1 -7 -9 -4 -18 7 -21 14 -7 14 6 0 13 -4 16 -10z m685
-24 c0 -2 -7 -7 -16 -10 -8 -3 -12 -2 -9 4 6 10 25 14 25 6z m-670 -50 c0 -3
-4 -8 -10 -11 -5 -3 -10 -1 -10 4 0 6 5 11 10 11 6 0 10 -2 10 -4z m135 -26
c3 -6 -1 -7 -9 -4 -18 7 -21 14 -7 14 6 0 13 -4 16 -10z m132 -25 c0 -8 -4
-12 -9 -9 -5 3 -6 10 -3 15 9 13 12 11 12 -6z m-177 -15 c0 -5 -5 -10 -11 -10
-5 0 -7 5 -4 10 3 6 8 10 11 10 2 0 4 -4 4 -10z m-260 -100 c0 -5 -2 -10 -4
-10 -3 0 -8 5 -11 10 -3 6 -1 10 4 10 6 0 11 -4 11 -10z m1530 -170 c-8 -5
-19 -10 -25 -10 -5 0 -3 5 5 10 8 5 20 10 25 10 6 0 3 -5 -5 -10z m-770 -24
c0 -2 -7 -7 -16 -10 -8 -3 -12 -2 -9 4 6 10 25 14 25 6z m980 -96 c0 -5 -5
-10 -11 -10 -5 0 -7 5 -4 10 3 6 8 10 11 10 2 0 4 -4 4 -10z m-308 -20 c7 -11
16 -20 21 -20 4 0 6 4 3 8 -8 14 29 31 45 21 11 -8 11 -9 -3 -7 -9 2 -23 -6
-31 -17 -12 -15 -18 -17 -29 -7 -8 6 -19 8 -23 4 -5 -4 -5 -1 0 7 4 8 2 17 -6
22 -10 6 -10 9 -2 9 7 0 18 -9 25 -20z m108 -9 c0 -5 -6 -14 -14 -20 -12 -10
-14 -9 -11 6 2 10 4 19 4 21 2 6 21 1 21 -7z m132 -13 c-7 -7 -12 -8 -12 -2 0
14 12 26 19 19 2 -3 -1 -11 -7 -17z"/>
<path d="M1294 1942 c0 -10 6 -19 12 -19 14 0 12 29 -2 34 -5 2 -10 -5 -10
-15z"/>
<path d="M1530 1875 c5 -7 6 -16 2 -21 -4 -5 -3 -5 2 -1 15 12 15 34 0 34 -9
0 -11 -4 -4 -12z"/>
<path d="M1563 1650 c-1 -10 9 -25 21 -33 19 -13 23 -13 23 -2 0 8 -4 12 -9 9
-4 -3 -8 1 -8 9 0 8 -6 19 -13 25 -10 8 -13 6 -14 -8z"/>
<path d="M1351 1537 c2 -1 13 -9 24 -17 19 -14 19 -14 6 3 -7 9 -18 17 -24 17
-6 0 -8 -1 -6 -3z"/>
<path d="M1488 1358 c3 -13 7 -17 9 -11 3 7 11 9 19 6 8 -3 14 1 14 8 0 7 -3
9 -6 6 -4 -3 -15 -2 -24 3 -15 8 -17 6 -12 -12z"/>
<path d="M1566 1362 c-3 -5 1 -9 9 -9 8 0 12 4 9 9 -3 4 -7 8 -9 8 -2 0 -6 -4
-9 -8z"/>
<path d="M1356 1321 c-3 -5 1 -11 9 -14 9 -4 12 -1 8 9 -6 16 -10 17 -17 5z"/>
<path d="M1595 1320 c-3 -5 -1 -10 4 -10 6 0 11 5 11 10 0 6 -2 10 -4 10 -3 0
-8 -4 -11 -10z"/>
<path d="M1260 795 c17 -20 30 -19 30 3 0 14 -2 15 -10 2 -6 -10 -10 -11 -10
-2 0 6 -5 12 -11 12 -8 0 -8 -5 1 -15z"/>
<path d="M1066 1352 c-3 -5 1 -9 9 -9 8 0 12 4 9 9 -3 4 -7 8 -9 8 -2 0 -6 -4
-9 -8z"/>
<path d="M1079 1308 c-6 -21 -5 -38 1 -38 5 0 8 9 7 20 -1 17 -5 26 -8 18z"/>
<path d="M1127 1165 c3 -8 9 -12 14 -9 12 7 11 11 -5 17 -10 4 -13 1 -9 -8z"/>
<path d="M562 1194 c-7 -8 -8 -14 -3 -14 10 0 25 19 20 25 -2 1 -10 -3 -17
-11z"/>
<path d="M630 1196 c0 -2 7 -7 16 -10 8 -3 12 -2 9 4 -6 10 -25 14 -25 6z"/>
<path d="M465 1180 c-3 -6 1 -7 9 -4 18 7 21 14 7 14 -6 0 -13 -4 -16 -10z"/>
<path d="M736 1145 c4 -8 11 -15 16 -15 6 0 5 6 -2 15 -7 8 -14 15 -16 15 -2
0 -1 -7 2 -15z"/>
<path d="M469 1118 c14 -19 32 -15 30 5 0 8 -2 8 -6 -1 -4 -10 -8 -10 -21 0
-15 12 -16 11 -3 -4z"/>
<path d="M777 1092 c-15 -16 -15 -20 -1 -40 8 -12 19 -22 25 -22 14 0 11 26
-6 40 -12 10 -13 16 -4 26 17 21 5 17 -14 -4z m14 -29 c13 -16 12 -17 -3 -4
-10 7 -18 15 -18 17 0 8 8 3 21 -13z"/>
<path d="M811 1016 c-8 -10 -9 -16 -1 -21 5 -3 10 -5 11 -3 4 18 7 38 4 38 -1
0 -8 -6 -14 -14z"/>
<path d="M867 959 c7 -9 10 -19 6 -23 -4 -4 1 -4 10 0 10 3 17 7 15 8 -2 1
-12 8 -23 16 -18 14 -19 13 -8 -1z"/>
<path d="M316 913 c-6 -14 -5 -15 5 -6 7 7 10 15 7 18 -3 3 -9 -2 -12 -12z"/>
<path d="M276 818 c3 -5 10 -6 15 -3 13 9 11 12 -6 12 -8 0 -12 -4 -9 -9z"/>
<path d="M306 418 c3 -5 10 -6 15 -3 13 9 11 12 -6 12 -8 0 -12 -4 -9 -9z"/>
<path d="M831 407 c-13 -21 -12 -21 5 -5 10 10 16 20 13 22 -3 3 -11 -5 -18
-17z"/>
<path d="M757 397 c-3 -8 1 -14 8 -14 7 0 11 6 8 14 -3 7 -6 13 -8 13 -2 0 -5
-6 -8 -13z"/>
<path d="M353 365 c0 -8 4 -12 9 -9 5 3 6 10 3 15 -9 13 -12 11 -12 -6z"/>
<path d="M495 320 c-3 -5 -1 -10 4 -10 6 0 11 5 11 10 0 6 -2 10 -4 10 -3 0
-8 -4 -11 -10z"/>
<path d="M660 320 c0 -5 5 -10 11 -10 5 0 7 5 4 10 -3 6 -8 10 -11 10 -2 0 -4
-4 -4 -10z"/>
<path d="M593 295 c-3 -9 -3 -19 1 -22 3 -4 6 1 6 11 0 10 5 14 12 10 7 -4 8
-3 4 4 -10 16 -15 15 -23 -3z"/>
<path d="M436 281 c-3 -5 1 -12 10 -15 22 -8 25 -4 9 11 -8 7 -16 9 -19 4z"/>
<path d="M713 283 c4 -3 1 -13 -6 -22 -11 -14 -10 -14 6 -2 20 15 22 31 5 31
-6 0 -8 -3 -5 -7z"/>
<path d="M1990 1119 c0 -5 5 -7 10 -4 6 3 10 8 10 11 0 2 -4 4 -10 4 -5 0 -10
-5 -10 -11z"/>
<path d="M1927 909 c7 -7 15 -10 18 -7 3 3 -2 9 -12 12 -14 6 -15 5 -6 -5z"/>
<path d="M1655 601 c-3 -5 -2 -12 3 -15 5 -3 9 1 9 9 0 17 -3 19 -12 6z"/>
<path d="M590 985 c-11 -13 -10 -14 4 -9 9 3 16 10 16 15 0 13 -6 11 -20 -6z"/>
<path d="M390 678 c0 -4 4 -8 9 -8 6 0 12 4 15 8 3 5 -1 9 -9 9 -8 0 -15 -4
-15 -9z"/>
<path d="M636 551 c-4 -7 -5 -15 -2 -18 9 -9 19 4 14 18 -4 11 -6 11 -12 0z"/>
<path d="M613 465 c0 -8 4 -12 9 -9 5 3 6 10 3 15 -9 13 -12 11 -12 -6z"/>
<path d="M571 434 c6 -7 16 -11 21 -8 11 7 3 17 -18 20 -12 2 -13 -1 -3 -12z"/>
<path d="M1160 728 c-12 -8 -12 -9 2 -4 10 3 18 -1 21 -12 4 -16 5 -16 6 0 1
22 -11 29 -29 16z"/>
<path d="M1146 702 c-2 -4 2 -16 10 -27 8 -10 14 -13 14 -6 0 7 5 9 11 6 6 -4
5 2 -3 14 -13 22 -24 26 -32 13z"/>
<path d="M1220 680 c6 -11 13 -20 16 -20 2 0 0 9 -6 20 -6 11 -13 20 -16 20
-2 0 0 -9 6 -20z"/>
<path d="M1202 555 c-6 -8 -19 -12 -27 -9 -11 5 -13 2 -9 -10 5 -12 10 -14 19
-6 6 5 14 8 16 5 3 -2 10 5 17 15 14 23 3 26 -16 5z"/>
<path d="M723 624 c1 -21 19 -26 34 -9 4 4 3 5 -4 1 -6 -3 -16 2 -22 11 -9 16
-10 16 -8 -3z"/>
<path d="M1998 2448 c-7 -16 18 -35 30 -23 3 3 0 5 -6 5 -6 0 -12 8 -14 18 -3
15 -4 16 -10 0z"/>
<path d="M2036 2437 c3 -10 9 -15 12 -12 3 3 0 11 -7 18 -10 9 -11 8 -5 -6z"/>
<path d="M1700 2395 c-9 -11 -10 -19 -3 -26 8 -8 13 -7 18 2 5 8 4 10 -3 5
-16 -9 -15 7 0 22 7 7 9 12 6 12 -3 0 -11 -7 -18 -15z"/>
<path d="M1550 2350 c0 -5 5 -10 11 -10 5 0 7 5 4 10 -3 6 -8 10 -11 10 -2 0
-4 -4 -4 -10z"/>
<path d="M1640 2351 c0 -6 4 -13 10 -16 6 -3 7 1 4 9 -7 18 -14 21 -14 7z"/>
<path d="M1675 2340 c-7 -11 -8 -11 22 -14 18 -2 20 0 12 11 -14 16 -26 17
-34 3z"/>
<path d="M1267 2325 c-8 -8 -18 -11 -22 -7 -5 4 -5 1 -1 -5 5 -10 11 -10 26 0
11 6 20 15 20 19 0 12 -7 10 -23 -7z"/>
<path d="M1170 2286 c0 -2 7 -7 16 -10 8 -3 12 -2 9 4 -6 10 -25 14 -25 6z"/>
<path d="M1810 2015 c0 -9 -4 -13 -10 -10 -6 3 -7 -1 -4 -10 4 -9 7 -15 8 -13
1 2 7 10 14 20 9 11 10 18 2 23 -5 3 -10 -1 -10 -10z"/>
<path d="M2034 1975 c-3 -8 -4 -20 -1 -27 3 -7 6 -3 6 10 1 15 5 21 13 16 7
-4 8 -3 4 4 -10 16 -15 15 -22 -3z"/>
<path d="M1910 1930 c0 -5 5 -10 11 -10 5 0 7 5 4 10 -3 6 -8 10 -11 10 -2 0
-4 -4 -4 -10z"/>
<path d="M1716 1921 c-3 -5 1 -11 9 -14 9 -4 12 -1 8 9 -6 16 -10 17 -17 5z"/>
<path d="M805 1861 c-3 -5 -2 -12 3 -15 5 -3 9 1 9 9 0 17 -3 19 -12 6z"/>
<path d="M1710 1862 c0 -7 -5 -10 -11 -6 -7 4 -7 -1 1 -16 8 -15 15 -19 22
-12 7 7 7 16 -1 29 -6 10 -11 13 -11 5z"/>
<path d="M1749 1763 c-13 -16 -12 -17 4 -4 16 13 21 21 13 21 -2 0 -10 -8 -17
-17z"/>
<path d="M850 1700 c0 -5 5 -10 11 -10 5 0 7 5 4 10 -3 6 -8 10 -11 10 -2 0
-4 -4 -4 -10z"/>
<path d="M921 1546 c-9 -10 -9 -16 -1 -21 8 -5 8 -11 1 -19 -8 -9 -7 -13 3
-13 8 0 13 7 11 16 -1 9 2 24 7 34 11 21 -4 23 -21 3z"/>
<path d="M1050 1505 c0 -5 5 -17 10 -25 5 -8 10 -10 10 -5 0 6 -5 17 -10 25
-5 8 -10 11 -10 5z"/>
<path d="M2031 1476 c-9 -10 -8 -15 3 -19 11 -4 13 -1 9 10 -5 12 -3 14 7 8 9
-5 11 -4 6 3 -9 15 -11 15 -25 -2z"/>
<path d="M1895 1360 c-3 -5 -1 -10 4 -10 6 0 11 5 11 10 0 6 -2 10 -4 10 -3 0
-8 -4 -11 -10z"/>
<path d="M1945 1359 c-4 -6 -5 -12 -2 -15 2 -3 7 2 10 11 7 17 1 20 -8 4z"/>
<path d="M1784 1306 c1 -8 5 -18 8 -22 4 -3 5 1 4 10 -1 8 -5 18 -8 22 -4 3
-5 -1 -4 -10z"/>
<path d="M2155 1291 c-3 -5 -2 -12 3 -15 5 -3 9 1 9 9 0 17 -3 19 -12 6z"/>
<path d="M1615 1140 c-3 -5 -1 -10 4 -10 6 0 11 5 11 10 0 6 -2 10 -4 10 -3 0
-8 -4 -11 -10z"/>
<path d="M1613 1105 c0 -8 4 -12 9 -9 5 3 6 10 3 15 -9 13 -12 11 -12 -6z"/>
<path d="M1560 990 c-8 -5 -12 -12 -9 -15 4 -3 12 1 19 10 14 17 11 19 -10 5z"/>
<path d="M1015 980 c3 -6 14 -10 23 -10 13 0 13 -2 -4 -16 -18 -15 -18 -15 3
-4 12 5 25 16 29 23 4 6 4 9 0 5 -5 -4 -19 -3 -33 3 -16 6 -22 6 -18 -1z"/>
<path d="M1510 799 c0 -5 5 -7 10 -4 6 3 10 8 10 11 0 2 -4 4 -10 4 -5 0 -10
-5 -10 -11z"/>
<path d="M2426 512 c-3 -5 1 -9 9 -9 8 0 12 4 9 9 -3 4 -7 8 -9 8 -2 0 -6 -4
-9 -8z"/>
<path d="M2431 474 c0 -11 3 -14 6 -6 3 7 2 16 -1 19 -3 4 -6 -2 -5 -13z"/>
<path d="M1650 185 c0 -2 10 -10 23 -16 20 -11 21 -11 8 4 -13 16 -31 23 -31
12z"/>
<path d="M1214 159 c-4 -7 -3 -9 4 -5 5 3 13 0 15 -6 4 -9 6 -10 6 -1 1 17
-16 25 -25 12z"/>
<path d="M2221 110 c-17 -22 -27 -40 -21 -40 5 0 10 5 10 11 0 5 4 8 8 5 4 -2
14 -1 22 5 10 5 11 9 3 9 -7 0 -10 7 -6 16 5 14 8 13 20 -7 11 -18 13 -19 7
-4 -3 11 -7 26 -7 33 -1 16 1 17 -36 -28z"/>
<path d="M1755 60 c-3 -6 1 -7 9 -4 18 7 21 14 7 14 -6 0 -13 -4 -16 -10z"/>
<path d="M2250 60 c0 -5 5 -10 11 -10 5 0 7 5 4 10 -3 6 -8 10 -11 10 -2 0 -4
-4 -4 -10z"/>
<path d="M1796 47 c3 -8 11 -14 19 -14 20 0 19 4 -5 17 -15 8 -18 8 -14 -3z"/>
<path d="M1999 46 c0 -1 -2 -9 -4 -19 -4 -22 7 -22 22 1 9 15 8 19 -3 19 -8 0
-14 -1 -15 -1z"/>
<path d="M2195 20 c3 -5 8 -10 11 -10 2 0 4 5 4 10 0 6 -5 10 -11 10 -5 0 -7
-4 -4 -10z"/>
</g>
</svg>
